<?xml version="1.0" encoding="UTF-8"?>
<svg width="24px" height="24px" viewBox="0 0 24 24" version="1.1" xmlns="http://www.w3.org/2000/svg" xmlns:xlink="http://www.w3.org/1999/xlink">
    <!-- Generator: Sketch 58 (84663) - https://sketch.com -->
    <title>iconsidebar</title>
    <desc>Created with Sketch.</desc>
    <g id="iconsidebar" stroke="none" stroke-width="1" fill="none" fill-rule="evenodd">
        <path d="M13.1123262,0.303607977 L21.610139,5.30136444 C22.1607869,5.62521294 22.5,6.22370967 22.5,6.87140669 L22.5,17.1285933 C22.5,17.7762903 22.1607869,18.3747871 21.610139,18.6986356 L13.1123262,23.696392 C12.4240164,24.1012027 11.5759836,24.1012027 10.8876738,23.696392 L10,23.174 L10,21.434 L11.6480958,22.4034271 L11.7445302,22.4507281 C11.9091356,22.516424 12.0908644,22.516424 12.2554698,22.4507281 L12.3519042,22.4034271 L20.849717,17.4056706 L20.9000884,17.3677829 C20.9463137,17.3242493 20.9794013,17.2647259 20.993056,17.1977446 L21,17.1285933 L21,6.87140669 L20.993056,6.8022554 C20.9794013,6.73527409 20.9463137,6.67575071 20.9000884,6.63221709 L20.849717,6.59432939 L12.3519042,1.59657293 L12.2554698,1.5492719 C12.0908644,1.48357603 11.9091356,1.48357603 11.7445302,1.5492719 L11.6480958,1.59657293 L3.15028298,6.59432939 L3.09991163,6.63221709 C3.05368635,6.67575071 3.0205987,6.73527409 3.00694395,6.8022554 L3,6.87140669 L3,17.1285933 L3.00694395,17.1977446 C3.0205987,17.2647259 3.05368635,17.3242493 3.09991163,17.3677829 L3.15028298,17.4056706 L4.5,18.199 L4.5,19.94 L2.38986097,18.6986356 C1.83921308,18.3747871 1.5,17.7762903 1.5,17.1285933 L1.5,6.87140669 C1.5,6.22370967 1.83921308,5.62521294 2.38986097,5.30136444 L10.8876738,0.303607977 C11.5759836,-0.101202659 12.4240164,-0.101202659 13.1123262,0.303607977 Z M12.5826471,6.15180399 L17.0338824,8.65068222 C17.322317,8.81260647 17.5,9.11185483 17.5,9.43570334 L17.5,14.5642967 C17.5,14.8881452 17.322317,15.1873935 17.0338824,15.3493178 L12.5826471,17.848196 C12.2221038,18.0506013 11.7778962,18.0506013 11.4173529,17.848196 L8,15.93 L8,21.766 L6.5,20.883 L6.5,9.43570334 C6.5,9.11185483 6.67768304,8.81260647 6.96611765,8.65068222 L11.4173529,6.15180399 C11.7778962,5.94939867 12.2221038,5.94939867 12.5826471,6.15180399 Z M12,7.54491728 L8,9.79047661 L8,14.2095234 L12,16.4550827 L16,14.2095234 L16,9.79047661 L12,7.54491728 Z" id="Combined-Shape" fill="#000000" fill-rule="nonzero"></path>
    </g>
</svg>