<?xml version="1.0" encoding="UTF-8"?>
<svg width="500px" height="152px" viewBox="0 0 500 152" version="1.1" xmlns="http://www.w3.org/2000/svg" xmlns:xlink="http://www.w3.org/1999/xlink">
    <!-- Generator: Sketch 58 (84663) - https://sketch.com -->
    <title>logo-full</title>
    <desc>Created with Sketch.</desc>
    <defs>
        <path d="M60.0615202,29.7165677 L55.0901425,29.7165677 L55.0901425,2.38485748 C59.1682898,0.806175772 63.4074228,0.0152019002 67.810867,0.0152019002 C71.1702494,0.0152019002 73.8633017,0.699287411 75.9269596,2.05593824 C79.7524941,0.699287411 83.437114,0.0152019002 86.9865202,0.0152019002 C90.6611045,0.0152019002 93.5050475,0.95807601 95.5285036,2.80914489 C97.5418646,4.68539192 98.5748219,7.31484561 98.5748219,10.6859857 L98.5748219,29.7165677 L93.6034442,29.7165677 L93.6034442,10.2261283 C93.6034442,9.38907363 93.5296912,8.64631829 93.389905,7.97381235 C93.2390143,7.3263658 92.9505938,6.64228029 92.496734,5.89851544 C92.0562352,5.1557601 91.3385392,4.60261283 90.3581354,4.18990499 C89.3766033,3.77713777 88.1547506,3.577019 86.7092637,3.577019 C84.3068884,3.577019 81.6887173,4.08301663 78.8346793,5.06252969 C79.5769596,6.51241093 79.9402613,8.23361045 79.9402613,10.2261283 L79.9402613,29.7165677 L74.9711401,29.7165677 L74.9711401,10.2261283 C74.9711401,9.35344418 74.8705463,8.58770784 74.7195962,7.91514252 C74.5441211,7.26769596 74.2165677,6.58361045 73.7246437,5.86395487 C73.2473278,5.1557601 72.4412708,4.60261283 71.3591449,4.18990499 C70.2524347,3.77713777 68.8930523,3.577019 67.2832542,3.577019 C64.80481,3.577019 62.387886,3.95415677 60.0615202,4.64976247 L60.0615202,29.7165677 Z M25.9816508,21.1441211 C25.3170428,19.3412114 24.9853325,17.2418646 24.9853325,14.8606888 C24.9853325,11.9473278 25.4687648,9.45926366 26.4503563,7.39655582 C27.4455463,5.35688836 28.7203682,3.81276722 30.2884798,2.79869359 C31.8667458,1.79614014 33.4347981,1.06490499 35.0005938,0.640617577 C36.5811164,0.24043943 38.3144893,0.0152019002 40.2007126,0.0152019002 C43.3492874,0.0152019002 46.444715,0.416448931 49.5151425,1.19376485 L49.5151425,4.76710214 C46.6609264,3.98978622 43.7172803,3.577019 40.6841449,3.577019 C36.9524941,3.577019 34.2375297,4.48426366 32.5562352,6.26514252 C30.8602138,8.05760095 30.0190024,10.9342637 30.0190024,14.8606888 C30.0190024,18.8572447 30.8602138,21.7339074 32.5562352,23.5022565 C34.2375297,25.2821259 36.9524941,26.1547506 40.6841449,26.1547506 C43.8327197,26.1547506 46.7888955,25.7660926 49.5151425,24.9647268 L49.5151425,28.5254751 C46.573753,29.3279097 43.4647862,29.7165677 40.2007126,29.7165677 C38.7220903,29.7165677 37.3464964,29.6097387 36.0728029,29.3865796 C34.7855107,29.1624109 33.4710214,28.7140143 32.1350356,28.0415083 C30.7967933,27.3815321 29.5978622,26.508848 28.5539786,25.4235748 C27.5214371,24.3738717 26.655285,22.9375891 25.9816508,21.1441211 Z M2.27731591,12.784323 C1.05866983,11.5942993 0.455522565,10.061639 0.455522565,8.13931116 C0.455522565,5.91003563 1.4087886,4.00029691 3.30415677,2.40896675 C5.19952494,0.806175772 8.12292162,0.0152019002 12.0508314,0.0152019002 C14.7991686,0.0152019002 17.5720309,0.546377672 20.332601,1.60653207 L20.332601,5.61567696 C17.8607482,4.26009501 15.2629454,3.577019 12.5514252,3.577019 C7.79845606,3.577019 5.41252969,5.09709026 5.41252969,8.13931116 C5.41252969,9.18901425 5.97779097,10.0144893 7.13064133,10.6504157 C8.297981,11.2873515 9.70498812,11.817399 11.372981,12.2301663 C13.0420428,12.6314133 14.7489905,13.1394893 16.4793943,13.7282067 C18.2230998,14.3295131 19.6937055,15.3080166 20.9235154,16.7002375 C22.139905,18.0914489 22.7553444,19.8828385 22.7553444,22.0293349 C22.7553444,24.4461401 21.688361,26.3203088 19.5811164,27.6758907 C17.4593824,29.0440618 14.5349169,29.7165677 10.7954276,29.7165677 C7.15516627,29.7165677 3.84489311,29.0901425 0.882541568,27.806829 L0.882541568,23.5137767 C4.01995249,25.2821259 7.26888361,26.1547506 10.594715,26.1547506 C15.401247,26.1547506 17.7960808,24.7761283 17.7960808,22.0293349 C17.7960808,20.5428147 17.2196556,19.3998812 16.0523753,18.5618171 C14.8995249,17.7247625 13.5058195,17.0888955 11.8367577,16.6635986 C10.1688242,16.2508314 8.47410926,15.7919834 6.73034442,15.2964964 C4.98551069,14.8135392 3.49144893,13.9754751 2.27731591,12.784323 Z" id="path-1"></path>
        <path d="M115.109026,35.7358076 C113.529869,33.9018409 112.749109,31.6134204 112.749109,28.8342637 C112.749109,24.1509501 114.389014,20.5564727 117.683135,18.0413302 C120.950772,15.5368171 125.038955,14.2669834 129.950891,14.2669834 C134.51057,14.2669834 138.711342,15.4293349 142.539964,17.7294537 C142.539964,17.7294537 145.969952,20.2328979 145.672862,22.7480998 C145.299644,26.0562352 142.539964,26.3435867 142.539964,26.3435867 C139.370606,24.964133 135.779394,24.2701306 131.775178,24.2701306 C126.742874,24.2701306 124.244952,25.4921021 124.244952,27.9125297 C124.244952,29.1344418 124.953919,30.0678741 126.383967,30.7629454 C127.811876,31.4580166 129.55,32.0700119 131.60291,32.5841449 C133.64038,33.1109857 135.802613,33.8188242 138.027791,34.7054632 C140.254038,35.6154988 142.143527,37.1003563 143.720487,39.2206057 C145.299644,41.341924 146.094715,44.0369952 146.094715,47.2950713 C146.094715,51.22481 144.515558,54.4839786 141.347328,57.0693824 C138.191211,59.6569181 134.025772,60.940576 128.830048,60.940576 C123.499525,60.940576 118.589786,59.6462767 114.103029,56.999133 C114.103029,56.999133 111.529988,56.2561876 111.529988,51.2599347 C111.529988,47.1992874 114.103029,47.1396675 114.103029,47.1396675 C118.217637,49.6782482 122.616093,50.9374228 127.327078,50.9374228 C130.335214,50.9374228 132.311876,50.612785 133.229572,49.9188005 C134.126247,49.223753 134.598931,48.1817162 134.598931,46.792696 C134.598931,45.5228622 133.875594,44.5042162 132.446615,43.7134204 C131.005523,42.9576603 129.266211,42.2764846 127.21443,41.6889549 C125.165914,41.1130641 123.052316,40.4308195 120.814964,39.6399644 C118.589786,38.8618765 116.687055,37.5558789 115.109026,35.7358076 Z M200.729335,20.871734 L200.729335,55.398747 C200.729335,58.4844537 198.035986,60.940576 194.631354,60.940576 C191.226722,60.940576 188.46443,58.4485986 188.46443,55.363943 L188.46443,20.9065321 C188.46443,17.8324228 191.226722,15.327791 194.631354,15.327791 C198.035986,15.327791 200.729335,17.7965558 200.729335,20.871734 Z M11.496734,59.6929276 L11.5958432,71.3071259 C11.5958432,74.3945428 9.05374109,76.852019 5.84305226,76.852019 C2.63236342,76.852019 0.030760095,74.3586639 0.030760095,71.270196 L0.030760095,29.266152 C0.030760095,25.1690024 1.60469121,21.6542162 4.79008314,18.6976247 C7.98865796,15.7516033 12.8713183,14.2669834 19.5063539,14.2669834 C21.0296912,14.2669834 22.5551663,14.3862233 24.0784442,14.6352732 C25.5786223,14.873753 27.3772565,15.4793943 29.4336105,16.4765439 C31.4812352,17.4736342 33.2523159,18.7567102 34.716152,20.3479216 C36.1909739,21.9274941 37.4554038,24.2552257 38.5337292,27.3194181 C39.6131235,30.3825416 40.1704869,33.9215558 40.1704869,37.9364608 C40.1704869,45.2150238 38.3244656,50.8094893 34.6290974,54.7041033 C30.9359857,58.5881651 25.6656176,60.5360036 18.811342,60.5360036 C16.2945962,60.5360036 13.8659145,60.2511045 11.496734,59.6929276 Z M11.1806413,28.4526128 L11.1806413,50.8928563 C13.7388361,51.2383789 16.0137767,51.3937114 17.9941211,51.3937114 C21.5675772,51.3937114 24.2924584,50.4289786 26.1940024,48.4678266 C28.0703682,46.5172209 29.0205463,43.0682898 29.0205463,38.1442993 C29.0205463,33.0913302 28.3135986,29.4395487 26.8997625,27.1919834 C25.4870546,24.9550475 23.0191211,23.8138955 19.4856295,23.8138955 C13.9432898,23.8138955 11.1806413,25.3597387 11.1806413,28.4526128 Z M61.3553444,6.07393112 L61.3553444,55.3458492 C61.3553444,58.4610095 58.6496437,60.940576 55.2497031,60.940576 C51.8474466,60.940576 49.09038,58.4248159 49.09038,55.3107185 L49.09038,6.11015439 C49.09038,2.99394299 51.8474466,0.477078385 55.2497031,0.477078385 C58.6496437,0.477078385 61.3553444,2.95771971 61.3553444,6.07393112 Z M175.187055,24.5887767 L168.985392,24.5887767 L168.985392,45.5544537 C168.985392,47.3833729 169.367043,48.6075772 170.180107,49.2249584 C170.991983,49.8539489 172.3019,50.1631651 174.36158,50.1631651 C176.281295,50.1631651 177.983017,49.8782245 179.47019,49.2597862 C179.47019,49.2597862 182.889489,48.6540083 182.889489,52.6221437 C182.889489,57.7764905 179.47019,58.4645843 179.47019,58.4645843 C177.271615,59.3911876 174.882185,59.8798159 172.288361,59.8798159 L172.225119,59.8798159 C167.586283,59.8798159 163.938895,58.6081116 161.296496,56.0414905 C158.628147,53.4885867 157.076603,50.1631651 157.076603,45.6726247 L157.076603,24.5887767 L154.687173,24.5887767 C151.78848,24.5887767 149.439727,22.3925772 149.439727,19.6834917 C149.439727,16.9638361 151.78848,14.7665677 154.687173,14.7665677 L157.076603,14.7665677 L157.076603,5.83408551 C157.190677,2.85267221 159.821734,0.477078385 163.024228,0.477078385 C166.240261,0.477078385 168.857779,2.85267221 168.985392,5.83408551 L168.985392,14.7665677 L175.187055,14.7665677 C178.072209,14.7665677 180.424406,16.9638361 180.424406,19.6834917 C180.424406,22.3925772 178.072209,24.5887767 175.187055,24.5887767 Z M188.46443,5.78087886 C188.46443,2.85314727 190.954157,0.477078385 194.03943,0.477078385 C197.123515,0.477078385 199.614371,2.85314727 199.614371,5.78087886 C199.614371,8.70967933 197.123515,11.0847387 194.03943,11.0847387 C190.954157,11.0847387 188.46443,8.70967933 188.46443,5.78087886 Z M212.274169,54.9139905 C208.299169,50.9129454 206.304335,45.1385986 206.304335,37.6399644 C206.304335,30.092399 208.299169,24.3063539 212.274169,20.2935867 C216.235689,16.2808195 221.798219,14.2669834 228.923456,14.2669834 C233.505523,14.2669834 238.027791,15.3814133 242.47215,17.5975059 C242.47215,17.5975059 245.329038,18.7236342 245.329038,23.0120546 C245.329038,27.3132423 242.47215,26.4989905 242.47215,26.4989905 C238.764549,25.0131235 234.865143,24.2701306 230.814489,24.2701306 C226.482957,24.2701306 223.284204,25.1929929 221.201366,27.014133 C219.104929,28.8342637 218.065796,32.3808195 218.065796,37.6399644 C218.065796,42.8140143 219.104929,46.337114 221.201366,48.1817162 C223.284204,50.0263064 226.482957,50.9374228 230.814489,50.9374228 C234.686876,50.9374228 238.572743,50.2178979 242.47215,48.7213599 C242.47215,48.7213599 245.329038,47.7868171 245.329038,52.217886 C245.329038,56.6521437 242.47215,57.610095 242.47215,57.610095 C238.027791,59.8378682 233.505523,60.940576 228.923456,60.940576 C221.798219,60.940576 216.235689,58.9512292 212.274169,54.9139905 Z M90.5463183,38.6645487 C83.7348575,38.6645487 80.3228029,40.4036223 80.3102138,43.8919834 C80.3102138,48.1934026 83.1410926,50.3329454 88.828266,50.3329454 L88.918943,50.3329454 C94.3339074,50.3329454 97.035095,48.3184204 97.035095,44.2476841 L97.035095,39.1788599 C94.5016033,38.8586698 92.3309976,38.6980998 90.5463183,38.6645487 Z M73.2699525,19.8497625 C73.2699525,17.765677 74.8454276,15.8125297 76.9048694,15.369715 C76.97981,15.2973278 77.1165083,15.2973278 77.2025534,15.2739311 C80.2178147,14.6023159 83.4459026,14.2669834 86.8934086,14.2669834 C93.4211995,14.2669834 98.396734,15.9210808 101.85962,19.21538 C105.31924,22.5213777 107.070012,27.2781473 107.070012,33.4952494 L107.070012,45.7134204 C107.070012,49.8826128 105.482423,53.4642933 102.328207,56.4477791 C99.1783848,59.4546853 94.3263658,60.940576 87.7875297,60.940576 C81.0005938,60.940576 76.0239905,59.4546853 72.8223278,56.4477791 C69.6339667,53.4408729 68.0452494,49.7751069 68.0452494,45.4749406 C68.0452494,44.5393705 68.1312352,43.5803444 68.3065321,42.6117577 C68.4928741,41.6410333 68.9515439,40.4063539 69.7210214,38.9087292 C70.4773753,37.4366983 71.5313539,36.1296318 72.8587292,35.0162708 C74.1883017,33.9018409 76.1474466,32.9311164 78.7294537,32.1413302 C81.3103919,31.3387767 84.3620546,30.9438836 87.8735154,30.9438836 C90.2449525,30.9438836 92.776247,31.147209 95.4928147,31.5421021 C95.4928147,25.959323 92.4278504,23.1557601 86.2991686,23.1557601 C84.1140143,23.1557601 81.7943587,23.4676366 79.721734,23.815677 C79.1396081,24.0902613 78.4814133,24.246734 77.7857482,24.246734 C75.3426366,24.246734 73.2699525,22.2095012 73.2699525,19.8497625 Z" id="path-3"></path>
        <path d="M57.5831948,30.4221496 L0.521169834,0.350178147 L57.7396675,30.4221496 L114.9981,1.42862233 C115.236639,2.3280285 115.36538,3.27214964 115.36538,4.24186461 L115.36538,55.6860095 C115.36538,60.1147506 112.711045,63.9424762 108.843884,65.7913361 L63.816152,90.9017399 C62.00962,91.9961401 59.8768409,92.6323159 57.5831948,92.6365796 L57.5831948,30.4221496 Z" id="path-5"></path>
        <path d="M109.464786,26.656057 C112.359442,28.1131235 114.534857,30.6873515 115.36538,33.7698337 L57.7712589,62.5850356 L0.521169834,32.7077197 C1.51869952,30.1187055 3.48704276,27.9796912 6.0109323,26.6909739 L51.5500594,1.67517815 L51.5656176,1.6942399 C53.3725653,0.622624703 55.5067696,0 57.797981,0 C59.9388955,0 61.9473278,0.549584323 63.6774347,1.49732779 L109.464786,26.656057 Z" id="path-7"></path>
        <path d="M0.485285036,55.629804 L0.485285036,4.18266033 C0.485285036,2.81644893 0.740261283,1.50890736 1.20790974,0.296140143 L58.2019002,30.112114 L58.1763064,92.3301247 C55.6888361,92.3301247 53.3773159,91.5884086 51.4744062,90.3319596 C51.4744062,90.3319596 51.7374109,90.5790143 6.90654988,65.6771021 C3.09966746,63.8068171 0.485285036,60.0097743 0.485285036,55.629804 Z" id="path-9"></path>
        <path d="M52.7505344,1.73557007 L90.1733373,22.3309382 C93.2282067,23.8704869 95.308076,26.9273159 95.308076,30.4468527 L95.308076,32.1166865 L95.308076,72.2898337 C95.308076,75.8919834 93.1292162,79.0070665 89.962114,80.5116686 L53.0317696,100.936556 C51.5499406,101.824911 50.403266,101.902126 48.5245843,101.905303 L48.5245843,90.5863777 C49.9864014,90.5821437 50.7428741,90.6203444 51.896734,89.9310451 L80.6130641,74.04538 C83.0798694,72.8764252 84.7729216,70.4538183 84.7729216,67.6532067 L84.7729216,36.4102138 L84.7729216,35.112114 C84.7729216,32.375 83.1554632,29.9979216 80.7820665,28.7982779 L51.6766627,12.7855701 C50.5761283,12.1798694 49.2988124,11.832601 47.9359264,11.832601 C46.4818884,11.832601 45.1256532,12.2275534 43.9684086,12.8978029 L15.0164133,28.8215558 C12.6663717,30.0265439 11.0678088,32.3909145 11.0678088,35.112114 L11.0678088,65.1945962 L11.0678088,67.6532067 L11.0678088,83.3874584 L5.78298694,80.4619062 C2.66812352,78.9414192 0.533741093,75.8549228 0.533741093,72.2898337 L0.533741093,30.4468527 C0.533741093,26.9485154 2.58919834,23.9086105 5.60957245,22.3595012 C5.60957245,22.3595012 42.8412114,1.88907363 42.8478622,1.89970309 C44.3263658,1.02191211 46.0705463,0.512589074 47.94038,0.512589074 C49.6934679,0.512589074 51.3342637,0.960510689 52.7505344,1.73557007 Z" id="path-11"></path>
        <path d="M41.5956651,22.2988717 L41.5956651,21.7424584 C41.5956651,20.5691805 40.9105701,19.5505938 39.9054632,19.0365796 L39.9065321,19.0365796 L27.5780879,12.1717933 L27.5780879,12.1728622 C27.1106888,11.9131829 26.5696556,11.7648456 25.9923397,11.7648456 C25.3765439,11.7648456 24.8014252,11.9333729 24.3153207,12.2269002 C24.3120546,12.2226841 24.3109264,12.2205463 24.3109264,12.2205463 L12.048462,19.047209 C11.0521556,19.563361 10.3758551,20.5765439 10.3758551,21.7424584 L10.3758551,35.6892518 C10.3758551,36.8783848 11.0785511,37.9075416 12.1056473,38.4141924 L12.1056473,38.4152019 L24.1745843,45.1665855 C24.6870546,45.5089252 25.3083729,45.7092399 25.9780285,45.7092399 C26.6004751,45.7092399 27.1799881,45.5364786 27.6704276,45.238658 L27.6704276,45.239715 L39.8350356,38.4311164 L39.8350356,38.4300475 C40.8797506,37.9287411 41.5956651,36.891152 41.5956651,35.6892518 L41.5956651,22.2988717 Z M49.9074822,12.226247 C51.5946556,13.0817102 52.7455463,14.7820071 52.7455463,16.7385392 L52.7455463,17.6659739 L52.7455463,39.9997625 C52.7455463,42.0017815 51.5415677,43.7328385 49.7891924,44.5681532 C49.7891924,44.5692162 49.7902613,44.5702732 49.7902613,44.5702732 L29.3708432,55.9240321 L29.369715,55.9240321 C28.5471496,56.420576 27.574228,56.7074881 26.5305226,56.7074881 C25.4061164,56.7074881 24.3635392,56.3729335 23.5033848,55.8044002 L10.887304,48.7914074 L10.887304,71.1675475 L0.340926366,65.6812411 L0.340926366,16.7385392 C0.340926366,14.7925772 1.47748812,13.1028504 3.14695368,12.2421021 L23.7311164,0.858729216 C23.7311164,0.858729216 23.7344418,0.862945368 23.7388955,0.869299287 C24.55481,0.381235154 25.5200119,0.0964370546 26.5548694,0.0964370546 C27.5222684,0.0964370546 28.4299881,0.34631829 29.2127078,0.778266033 L29.2127078,0.77719715 L49.9074822,12.2251781 L49.9074822,12.226247 Z" id="path-13"></path>
    </defs>
    <g id="logo-full" stroke="none" stroke-width="1" fill="none" fill-rule="evenodd">
        <g id="Group-3" transform="translate(388.361045, 58.788599)">
            <mask id="mask-2" fill="white">
                <use xlink:href="#path-1"></use>
            </mask>
            <g id="Clip-2"></g>
            <polygon id="Fill-1" fill="#133A51" mask="url(#mask-2)" points="-2.51359857 -2.95391924 101.543943 -2.95391924 101.543943 32.6856888 -2.51359857 32.6856888"></polygon>
        </g>
        <g id="Group-6" transform="translate(140.142518, 44.536817)">
            <mask id="mask-4" fill="white">
                <use xlink:href="#path-3"></use>
            </mask>
            <g id="Clip-5"></g>
            <polygon id="Fill-4" fill="#133A51" mask="url(#mask-4)" points="-2.93836105 -2.49204276 248.298159 -2.49204276 248.298159 79.8211401 -2.93836105 79.8211401"></polygon>
        </g>
        <g id="Group-9" transform="translate(13.657957, 45.724466)">
            <mask id="mask-6" fill="white">
                <use xlink:href="#path-5"></use>
            </mask>
            <g id="Clip-8"></g>
            <polygon id="Fill-7" fill="#FF5B00" mask="url(#mask-6)" points="-2.44795131 -2.61894299 118.334501 -2.61894299 118.334501 95.6057007 -2.44795131 95.6057007"></polygon>
        </g>
        <g id="Group-12" transform="translate(13.657957, 14.251781)">
            <mask id="mask-8" fill="white">
                <use xlink:href="#path-7"></use>
            </mask>
            <g id="Clip-11"></g>
            <polygon id="Fill-10" fill="#FF4300" mask="url(#mask-8)" points="-2.44795131 -2.96912114 118.334501 -2.96912114 118.334501 65.5541568 -2.44795131 65.5541568"></polygon>
        </g>
        <g id="Group-15" transform="translate(13.064133, 46.318290)">
            <mask id="mask-10" fill="white">
                <use xlink:href="#path-9"></use>
            </mask>
            <g id="Clip-14"></g>
            <polygon id="Fill-13" fill="#DB2F00" mask="url(#mask-10)" points="-2.4838361 -2.672981 61.1710214 -2.672981 61.1710214 95.2992458 -2.4838361 95.2992458"></polygon>
        </g>
        <g id="Group-18" transform="translate(22.565321, 24.346793)">
            <mask id="mask-12" fill="white">
                <use xlink:href="#path-11"></use>
            </mask>
            <g id="Clip-17"></g>
            <polygon id="Fill-16" fill="#FFFFFE" mask="url(#mask-12)" points="-2.43538005 -2.45653207 98.2771971 -2.45653207 98.2771971 104.874424 -2.43538005 104.874424"></polygon>
        </g>
        <g id="Group-21" transform="translate(43.942993, 48.099762)">
            <mask id="mask-14" fill="white">
                <use xlink:href="#path-13"></use>
            </mask>
            <g id="Clip-20"></g>
            <polygon id="Fill-19" fill="#FFFFFE" mask="url(#mask-14)" points="-2.62819477 -2.87268409 55.7146675 -2.87268409 55.7146675 74.1366686 -2.62819477 74.1366686"></polygon>
        </g>
    </g>
</svg>